# xmcd CD database file
#
# Track frame offsets:
#	150
#	12133
#	22745
#	42280
#	54876
#	66360
#	81008
#	93952
#	108872
#	118211
#	133765
#	148303
#	160567
#	176524
#
# Disc length: 2538 seconds
#
# Revision: 0
# Processed by: cddbd v1.5.2PL0 Copyright (c) Steve Scherf et al.
# Submitted via: CDex 1.51
#
DISCID=ad09e80e
DTITLE=Ivar Dolve - Sings old favourites
DYEAR=2007
DGENRE=Country
TTITLE0=Everybody's had the blues
TTITLE1=Rainbow stew
TTITLE2=Going where the lonely go
TTITLE3=Understand your man
TTITLE4=Carolyn
TTITLE5=Does forth Worth ever cross your mind
TTITLE6=The fightin' side of me
TTITLE7=Twinkle twinkle lucky star
TTITLE8=I got stripes
TTITLE9=Hungry eyes
TTITLE10=If we're not in love by monday
TTITLE11=Rainy day woman
TTITLE12=It's not love
TTITLE13=That's the way love goes
EXTD=YEAR: 2007
EXTT0=
EXTT1=
EXTT2=
EXTT3=
EXTT4=
EXTT5=
EXTT6=
EXTT7=
EXTT8=
EXTT9=
EXTT10=
EXTT11=
EXTT12=
EXTT13=
PLAYORDER=
